<?xml version="1.0" encoding="UTF-8"?>
<svg width="232.521mm" height="120.265mm" version="1.1" viewBox="0 0 69.7562 36.0794" xmlns="http://www.w3.org/2000/svg" xmlns:xlink="http://www.w3.org/1999/xlink"><defs><symbol id="symbol3042" overflow="visible"><path d="m3.01562-3.15625h1.70312c1.40625 0 2.79688-1.03125 2.79688-2.14062 0-0.78125-0.65625-1.51562-1.96875-1.51562h-3.21875c-0.1875 0-0.296875 0-0.296875 0.1875 0 0.125 0.078125 0.125 0.28125 0.125 0.125 0 0.3125 0.015625 0.421875 0.015625 0.171875 0.03125 0.21875 0.046875 0.21875 0.171875 0 0.03125 0 0.0625-0.03125 0.1875l-1.34375 5.34375c-0.09375 0.390625-0.109375 0.46875-0.90625 0.46875-0.15625 0-0.265625 0-0.265625 0.1875 0 0.125 0.109375 0.125 0.140625 0.125 0.28125 0 0.984375-0.03125 1.26562-0.03125 0.21875 0 0.4375 0.015625 0.640625 0.015625 0.21875 0 0.4375 0.015625 0.640625 0.015625 0.078125 0 0.203125 0 0.203125-0.203125 0-0.109375-0.09375-0.109375-0.28125-0.109375-0.359375 0-0.640625 0-0.640625-0.171875 0-0.0625 0.015625-0.109375 0.03125-0.171875zm0.71875-2.96875c0.09375-0.34375 0.109375-0.375 0.546875-0.375h0.953125c0.828125 0 1.35938 0.265625 1.35938 0.953125 0 0.390625-0.203125 1.25-0.59375 1.60938-0.5 0.453125-1.09375 0.53125-1.53125 0.53125h-1.40625z"/></symbol><symbol id="symbol9145" overflow="visible"><path d="m3.01562-3.15625h1.70312c1.40625 0 2.79688-1.03125 2.79688-2.14062 0-0.78125-0.65625-1.51562-1.96875-1.51562h-3.21875c-0.1875 0-0.296875 0-0.296875 0.1875 0 0.125 0.078125 0.125 0.28125 0.125 0.125 0 0.3125 0.015625 0.421875 0.015625 0.171875 0.03125 0.21875 0.046875 0.21875 0.171875 0 0.03125 0 0.0625-0.03125 0.1875l-1.34375 5.34375c-0.09375 0.390625-0.109375 0.46875-0.90625 0.46875-0.15625 0-0.265625 0-0.265625 0.1875 0 0.125 0.109375 0.125 0.140625 0.125 0.28125 0 0.984375-0.03125 1.26562-0.03125 0.21875 0 0.4375 0.015625 0.640625 0.015625 0.21875 0 0.4375 0.015625 0.640625 0.015625 0.078125 0 0.203125 0 0.203125-0.203125 0-0.109375-0.09375-0.109375-0.28125-0.109375-0.359375 0-0.640625 0-0.640625-0.171875 0-0.0625 0.015625-0.109375 0.03125-0.171875zm0.71875-2.96875c0.09375-0.34375 0.109375-0.375 0.546875-0.375h0.953125c0.828125 0 1.35938 0.265625 1.35938 0.953125 0 0.390625-0.203125 1.25-0.59375 1.60938-0.5 0.453125-1.09375 0.53125-1.53125 0.53125h-1.40625z"/></symbol><symbol id="symbol3166" overflow="visible"><path d="m2.01562-3.29688c0.0625-0.109375 0.0625-0.171875 0.0625-0.21875 0-0.21875-0.1875-0.375-0.40625-0.375-0.265625 0-0.34375 0.21875-0.375 0.328125l-0.921875 3.01562c-0.015625 0.015625-0.046875 0.09375-0.046875 0.109375 0 0.078125 0.21875 0.15625 0.28125 0.15625 0.046875 0 0.046875-0.015625 0.09375-0.125z"/></symbol></defs><g transform="translate(-58.3728 -62.5097)"><path d="m83.187 67.0189-16.801-2.40054-3.29902 23.1014 12.6008 1.79972v-14.9999" fill="#b0b0b0"/><g><path d="m98.7836 89.5195c0-0.329353-0.267342-0.596692-0.596692-0.596692-0.329349 0-0.595312 0.267339-0.595312 0.596692 0 0.32935 0.265963 0.596688 0.595312 0.596688 0.32935 0 0.596692-0.267338 0.596692-0.596688z"/><path d="m98.7836 74.5196c0-0.32935-0.267342-0.596689-0.596692-0.596689-0.329349 0-0.595312 0.267339-0.595312 0.596689 0 0.329353 0.265963 0.596691 0.595312 0.596691 0.32935 0 0.596692-0.267338 0.596692-0.596691z"/><path d="m83.7837 67.0189c0-0.329353-0.267339-0.595313-0.596689-0.595313-0.329353 0-0.596691 0.26596-0.596691 0.595313 0 0.32935 0.267338 0.596688 0.596691 0.596688 0.32935 0 0.596689-0.267338 0.596689-0.596688z"/><path d="m76.283 74.5196c0-0.32935-0.265963-0.596689-0.595312-0.596689-0.329354 0-0.596692 0.267339-0.596692 0.596689 0 0.329353 0.267338 0.596691 0.596692 0.596691 0.329349 0 0.595312-0.267338 0.595312-0.596691z"/><path d="m76.283 89.5195c0-0.329353-0.265963-0.596692-0.595312-0.596692-0.329354 0-0.596692 0.267339-0.596692 0.596692 0 0.32935 0.267338 0.596688 0.596692 0.596688 0.329349 0 0.595312-0.267338 0.595312-0.596688z"/><path d="m66.9827 64.6184c0-0.32935-0.267338-0.596692-0.596688-0.596692-0.329353 0-0.595312 0.267342-0.595312 0.596692 0 0.329349 0.265959 0.596691 0.595312 0.596691 0.32935 0 0.596688-0.267342 0.596688-0.596691z"/><path d="m63.6823 87.7198c0-0.32935-0.265963-0.596689-0.595312-0.596689-0.329354 0-0.596692 0.267339-0.596692 0.596689 0 0.329353 0.267338 0.596691 0.596692 0.596691 0.329349 0 0.595312-0.267338 0.595312-0.596691z"/></g><g fill="none" stroke="#000" stroke-miterlimit="10"><path d="m66.386 64.6184-3.29902 23.1014" stroke-width=".421756"/><path d="m116.188 98.5195-10.3408-1.47726" stroke-width=".140582"/><path d="m106.185 97.6582c-4e-3 -0.213597-0.34313-0.580154-0.44234-0.631141 0.11024-0.0193 0.53743-0.278366 0.6022-0.480935" stroke-linecap="round" stroke-linejoin="round" stroke-width=".112457"/><path d="m116.938 93.2692-10.3408-1.47726" stroke-width=".140582"/><path d="m106.936 92.4093c-6e-3 -0.213597-0.34314-0.58153-0.44236-0.631141 0.10887-0.02067 0.53606-0.278363 0.60083-0.482314" stroke-linecap="round" stroke-linejoin="round" stroke-width=".112457"/><path d="m117.688 88.0202-10.3394-1.47726" stroke-width=".140582"/><path d="m107.686 87.1589c-6e-3 -0.213596-0.34313-0.581533-0.44235-0.63114 0.10886-0.02067 0.53606-0.278367 0.60082-0.482315" stroke-linecap="round" stroke-linejoin="round" stroke-width=".112457"/><path d="m118.437 82.7699-10.3394-1.47726" stroke-width=".140582"/><path d="m108.435 81.9086c-4e-3 -0.213597-0.34313-0.581533-0.44235-0.631144 0.10887-0.0193 0.53744-0.278363 0.60221-0.482311" stroke-linecap="round" stroke-linejoin="round" stroke-width=".112457"/><path d="m119.188 77.5196-10.3408-1.47726" stroke-width=".140582"/><path d="m109.185 76.6583c-4e-3 -0.213593-0.34175-0.58153-0.44234-0.631141 0.11024-0.0193 0.53743-0.278363 0.6022-0.482314" stroke-linecap="round" stroke-linejoin="round" stroke-width=".112457"/><path d="m119.938 72.2692-10.3408-1.47726" stroke-width=".140582"/><path d="m109.936 71.408c-6e-3 -0.213596-0.34314-0.581529-0.44235-0.63114 0.10886-0.0193 0.53605-0.278363 0.60082-0.480935" stroke-linecap="round" stroke-linejoin="round" stroke-width=".112457"/><path d="m120.688 67.0189-10.3394-1.47726" stroke-width=".140582"/><path d="m110.686 66.159c-5e-3 -0.213596-0.34313-0.581533-0.44235-0.631144 0.10887-0.02067 0.53605-0.278363 0.60082-0.482311" stroke-linecap="round" stroke-linejoin="round" stroke-width=".112457"/><g stroke-width=".140582"><path d="m126.196 83.5195c0-0.970139-0.78686-1.757-1.75838-1.757-0.97014 0-1.757 0.78686-1.757 1.757s0.78686 1.757 1.757 1.757c0.97152 0 1.75838-0.78686 1.75838-1.757z"/><path d="m126.284 83.5195h1.8452"/><path d="m125.744 82.2145 1.305-1.305"/><path d="m124.439 81.6743v-1.84519"/><path d="m123.135 82.2145-1.30501-1.305"/><path d="m122.593 83.5195h-1.84519"/><path d="m123.135 84.8245-1.30501 1.305"/><path d="m124.439 85.3647v1.84519"/><path d="m125.744 84.8245 1.305 1.305"/><path d="m76.3533 89.5195h21.168m0.666972-0.666972v-13.6674m-0.596692-0.964625-13.8079-6.90397m-1.06798 0.17363-6.55671 6.55671m-0.472666 1.13826v13.6674"/><path d="m62.1871 94.0202 4.50068-31.5006"/><path d="m82.5269 66.9238-16.141-2.30546"/><path d="m75.0263 89.4258-11.9393-1.70601"/></g></g><g transform="matrix(.352778 0 0 .352778 -47.2347 21.9722)" fill="#fff"><g transform="matrix(.264583 0 0 .264583 376.071 216.46)"><path d="m3.29688-3.45312h1.85938c1.54688 0 3.0625-1.125 3.0625-2.34375 0-0.84375-0.71875-1.65625-2.14062-1.65625h-3.53125c-0.21875 0-0.328125 0-0.328125 0.21875 0 0.125 0.09375 0.125 0.3125 0.125 0.140625 0 0.34375 0.015625 0.46875 0.015625 0.171875 0.03125 0.234375 0.0625 0.234375 0.171875 0 0.046875 0 0.078125-0.03125 0.21875l-1.46875 5.85938c-0.109375 0.421875-0.125 0.5-1 0.5-0.171875 0-0.296875 0-0.296875 0.21875 0 0.125 0.125 0.125 0.15625 0.125 0.3125 0 1.07812-0.03125 1.39062-0.03125 0.234375 0 0.46875 0.015625 0.703125 0.015625s0.46875 0.015625 0.703125 0.015625c0.078125 0 0.21875 0 0.21875-0.21875 0-0.125-0.09375-0.125-0.3125-0.125-0.390625 0-0.703125 0-0.703125-0.1875 0-0.0625 0.03125-0.125 0.03125-0.1875zm0.796875-3.25c0.09375-0.375 0.109375-0.40625 0.578125-0.40625h1.04688c0.90625 0 1.48438 0.296875 1.48438 1.04688 0 0.421875-0.21875 1.35938-0.640625 1.75-0.546875 0.5-1.20312 0.578125-1.67188 0.578125h-1.54688z"/></g></g><g transform="matrix(.598737 0 0 .598737 28.7329 32.9819)"><g><use x="91.925003" y="81.962997" width="100%" height="100%" xlink:href="#symbol3042"/></g></g><g transform="matrix(.598737 0 0 .598737 3.09067 27.6972)"><g><use x="91.925003" y="81.962997" width="100%" height="100%" xlink:href="#symbol9145"/><use x="99.705002" y="78.347" width="100%" height="100%" xlink:href="#symbol3166"/></g></g></g></svg>
