<?xml version="1.0" encoding="UTF-8"?>
<svg width="211.502mm" height="116.788mm" version="1.1" viewBox="0 0 211.502 116.788" xmlns="http://www.w3.org/2000/svg" xmlns:xlink="http://www.w3.org/1999/xlink"><defs><symbol id="symbol2075" overflow="visible"><path d="m2.82812-6.15625c0-0.390625 0.25-1.03125 1.34375-1.09375 0.046875-0.015625 0.078125-0.0625 0.078125-0.109375 0-0.125-0.078125-0.125-0.1875-0.125-0.984375 0-1.90625 0.515625-1.90625 1.25v2.28125c0 0.390625 0 0.703125-0.40625 1.03125-0.34375 0.296875-0.71875 0.3125-0.9375 0.3125-0.0625 0.015625-0.09375 0.0625-0.09375 0.109375 0 0.109375 0.0625 0.109375 0.15625 0.125 0.65625 0.03125 1.14062 0.390625 1.25 0.875 0.03125 0.109375 0.03125 0.140625 0.03125 0.5v1.96875c0 0.421875 0 0.734375 0.46875 1.10938 0.390625 0.296875 1.04688 0.421875 1.4375 0.421875 0.109375 0 0.1875 0 0.1875-0.125 0-0.09375-0.046875-0.09375-0.15625-0.109375-0.625-0.03125-1.10938-0.359375-1.25-0.859375-0.015625-0.09375-0.015625-0.109375-0.015625-0.46875v-2.09375c0-0.453125-0.09375-0.625-0.40625-0.953125-0.203125-0.203125-0.5-0.296875-0.78125-0.390625 0.828125-0.21875 1.1875-0.6875 1.1875-1.26562z"/></symbol><symbol id="symbol670" overflow="visible"><path d="m2.15625 1.17188c0 0.390625-0.265625 1.03125-1.34375 1.09375-0.0625 0.015625-0.09375 0.0625-0.09375 0.109375 0 0.125 0.109375 0.125 0.203125 0.125 0.96875 0 1.89062-0.5 1.90625-1.25v-2.28125c0-0.390625 0-0.703125 0.390625-1.03125 0.34375-0.296875 0.734375-0.3125 0.953125-0.3125 0.046875-0.015625 0.078125-0.0625 0.078125-0.125 0-0.09375-0.046875-0.09375-0.15625-0.109375-0.65625-0.03125-1.14062-0.390625-1.25-0.875-0.015625-0.109375-0.015625-0.140625-0.015625-0.5v-1.96875c0-0.421875 0-0.734375-0.484375-1.10938-0.40625-0.3125-1.09375-0.421875-1.42188-0.421875-0.09375 0-0.203125 0-0.203125 0.125 0 0.09375 0.0625 0.09375 0.15625 0.109375 0.625 0.03125 1.125 0.359375 1.25 0.859375 0.03125 0.09375 0.03125 0.109375 0.03125 0.46875v2.09375c0 0.453125 0.078125 0.625 0.390625 0.953125 0.21875 0.203125 0.5 0.296875 0.78125 0.375-0.8125 0.234375-1.17188 0.703125-1.17188 1.28125z"/></symbol><symbol id="symbol5813" overflow="visible"><path d="m4.57812-3.1875c0-0.796875-0.046875-1.59375-0.390625-2.32812-0.453125-0.96875-1.28125-1.125-1.6875-1.125-0.609375 0-1.32812 0.265625-1.75 1.1875-0.3125 0.6875-0.359375 1.46875-0.359375 2.26562 0 0.75 0.03125 1.64062 0.453125 2.40625 0.421875 0.796875 1.15625 1 1.64062 1 0.53125 0 1.29688-0.203125 1.73438-1.15625 0.3125-0.6875 0.359375-1.46875 0.359375-2.25zm-2.09375 3.1875c-0.390625 0-0.984375-0.25-1.15625-1.20312-0.109375-0.59375-0.109375-1.51562-0.109375-2.10938 0-0.640625 0-1.29688 0.078125-1.82812 0.1875-1.1875 0.9375-1.28125 1.1875-1.28125 0.328125 0 0.984375 0.1875 1.17188 1.17188 0.109375 0.5625 0.109375 1.3125 0.109375 1.9375 0 0.75 0 1.42188-0.109375 2.0625-0.15625 0.953125-0.71875 1.25-1.17188 1.25z"/></symbol></defs><g transform="translate(.170718 -37.7827)"><g transform="matrix(.352778 0 0 -.352778 117.331 95.0366)"><g transform="translate(0,133.228)"></g><g transform="translate(-133.229)"></g><g transform="translate(133.228)"></g><g transform="translate(0,-133.228)"></g></g><g transform="matrix(.352778 0 0 -.352778 117.331 95.0366)"><g transform="translate(-303.275,125.792)"><g transform="translate(-348.365,-500.176)" fill="#000000"><g font-size="29.7484px"><text transform="matrix(1,0,0,-1,348.365,500.176)" font-family="CMSY10"><tspan x="0" y="0">L</tspan></text><text transform="matrix(1,0,0,-1,368.884,500.176)" font-family="CMR17"><tspan x="0" y="0">(</tspan></text><text transform="matrix(1,0,0,-1,379.418,500.176)" font-family="CMMI12"><tspan x="0" y="0">Z</tspan></text><text transform="matrix(1,0,0,-1,401.492,500.176)" font-family="CMR17"><tspan x="0" y="0">)</tspan></text></g><text transform="matrix(1,0,0,-1,412.027,495.714)" font-family="CMR17" font-size="20.6625px"><tspan x="0" y="0">2</tspan></text></g></g><g transform="translate(-303.275,-7.436)"><g transform="translate(-348.365,-366.948)" fill="#000000"><g font-size="29.7484px"><text transform="matrix(1,0,0,-1,348.365,366.948)" font-family="CMSY10"><tspan x="0" y="0">L</tspan></text><text transform="matrix(1,0,0,-1,368.884,366.948)" font-family="CMR17"><tspan x="0" y="0">(</tspan></text><text transform="matrix(1,0,0,-1,379.418,366.948)" font-family="CMMI12"><tspan x="0" y="0">Z</tspan></text><text transform="matrix(1,0,0,-1,401.492,366.948)" font-family="CMR17"><tspan x="0" y="0">)</tspan></text></g><text transform="matrix(1,0,0,-1,412.027,362.485)" font-family="CMR17" font-size="20.6625px"><tspan x="0" y="0">1</tspan></text></g></g><g transform="translate(-303.275,-140.664)"><g transform="translate(-348.365,-233.72)" fill="#000000"><g font-size="29.7484px"><text transform="matrix(1,0,0,-1,348.365,233.72)" font-family="CMSY10"><tspan x="0" y="0">L</tspan></text><text transform="matrix(1,0,0,-1,368.884,233.72)" font-family="CMR17"><tspan x="0" y="0">(</tspan></text><text transform="matrix(1,0,0,-1,379.418,233.72)" font-family="CMMI12"><tspan x="0" y="0">Z</tspan></text><text transform="matrix(1,0,0,-1,401.492,233.72)" font-family="CMR17"><tspan x="0" y="0">)</tspan></text></g><text transform="matrix(1,0,0,-1,412.027,229.257)" font-family="CMR17" font-size="20.6625px"><tspan x="0" y="0">0</tspan></text></g></g><path d="m-333.075-66.6149h599.535" fill="none" stroke="#808080" stroke-dasharray="2.98883, 2.98883" stroke-miterlimit="10" stroke-width=".3985"/><path d="m-333.075 66.6149h599.535" fill="none" stroke="#808080" stroke-dasharray="2.98883, 2.98883" stroke-miterlimit="10" stroke-width=".3985"/><g transform="translate(77.529,121.171)"><g transform="translate(-729.169,-495.555)" fill="#000000"><text transform="matrix(1,0,0,-1,729.169,495.555)" font-family="MSBM10" font-size="29.7484px"><tspan x="0" y="0">R</tspan></text><text transform="matrix(1,0,0,-1,750.654,506.35)" font-family="CMR17" font-size="20.6625px"><tspan x="0" y="0">2</tspan></text></g></g></g><g fill="none" stroke="#000" stroke-miterlimit="10" stroke-width=".140582"><path d="m108.496 133.194-29.3228-29.3223m3.53e-4 -17.6703 29.3223-29.3228"/><path d="m117.331 129.535v-22.0023m0-24.992v-22.0023"/><path d="m126.166 133.194 29.3228-29.3223m-3.6e-4 -17.6703-29.3223-29.3228"/></g><g transform="matrix(.352778 0 0 -.352778 117.331 95.0366)"><path d="m33.3073 133.25-16.6537 28.8451h-33.3073l-16.6537-28.8451 16.6537-28.8451h33.3073l16.6537 28.8451" fill="none" stroke="#000" stroke-miterlimit="10" stroke-width=".3985"/><path d="m33.3073 133.25-16.6537 28.8451h-33.3073l-16.6537-28.8451 16.6537-28.8451h33.3073l16.6537 28.8451" fill="#7a0000"/><path d="m33.3073 0-16.6537 28.8451h-33.3073l-16.6537-28.8451 16.6537-28.8451h33.3073l16.6537 28.8451" fill="none" stroke="#000" stroke-miterlimit="10" stroke-width=".3985"/><path d="m33.3073 0-16.6537 28.8451" fill="none" stroke="#7a0000" stroke-linecap="round" stroke-miterlimit="10" stroke-width="2.98883"/><path d="m-33.3073 0 16.6537-28.8451" fill="none" stroke="#7a0000" stroke-linecap="round" stroke-miterlimit="10" stroke-width="2.98883"/><path d="m166.557 0-16.6537 28.8451h-33.3073l-16.6537-28.8451 16.6537-28.8451h33.3073l16.6537 28.8451" fill="none" stroke="#000" stroke-miterlimit="10" stroke-width=".3985"/><path d="m149.904 28.8451h-33.3073" fill="none" stroke="#7a0000" stroke-linecap="round" stroke-miterlimit="10" stroke-width="2.98883"/><path d="m116.596-28.8451h33.3073" fill="none" stroke="#7a0000" stroke-linecap="round" stroke-miterlimit="10" stroke-width="2.98883"/><path d="m-99.9427 0-16.6537 28.8451h-33.3073l-16.6537-28.8451 16.6537-28.8451h33.3073l16.6537 28.8451" fill="none" stroke="#000" stroke-miterlimit="10" stroke-width=".3985"/><path d="m-149.904 28.8451-16.6537-28.8451" fill="none" stroke="#7a0000" stroke-linecap="round" stroke-miterlimit="10" stroke-width="2.98883"/><path d="m-116.596-28.8451 16.6537 28.8451" fill="none" stroke="#7a0000" stroke-linecap="round" stroke-miterlimit="10" stroke-width="2.98883"/><path d="m33.3073-133.25-16.6537 28.8451h-33.3073l-16.6537-28.8451 16.6537-28.8451h33.3073l16.6537 28.8451" fill="none" stroke="#000" stroke-miterlimit="10" stroke-width=".3985"/><path d="m39.9692-133.25c0 3.67929-2.98258 6.66185-6.66187 6.66185s-6.66184-2.98256-6.66184-6.66185 2.98255-6.66185 6.66184-6.66185 6.66187 2.98256 6.66187 6.66185z" fill="#7a0000"/><path d="m23.3155-104.405c0 3.67927-2.98256 6.66185-6.66185 6.66185s-6.66186-2.98258-6.66186-6.66185c0-3.67929 2.98257-6.66187 6.66186-6.66187s6.66185 2.98258 6.66185 6.66187z" fill="#7a0000"/><path d="m-9.99178-104.405c0 3.67927-2.98257 6.66185-6.66186 6.66185s-6.66185-2.98258-6.66185-6.66185c0-3.67929 2.98256-6.66187 6.66185-6.66187s6.66186 2.98258 6.66186 6.66187z" fill="#7a0000"/><path d="m-26.6455-133.25c0 3.67929-2.98255 6.66185-6.66184 6.66185s-6.66187-2.98256-6.66187-6.66185 2.98258-6.66185 6.66187-6.66185 6.66184 2.98256 6.66184 6.66185z" fill="#7a0000"/><path d="m-9.99178-162.095c0 3.67927-2.98257 6.66185-6.66186 6.66185s-6.66185-2.98258-6.66185-6.66185c0-3.67929 2.98256-6.66187 6.66185-6.66187s6.66186 2.98258 6.66186 6.66187z" fill="#7a0000"/><path d="m23.3155-162.095c0 3.67927-2.98256 6.66185-6.66185 6.66185s-6.66186-2.98258-6.66186-6.66185c0-3.67929 2.98257-6.66187 6.66186-6.66187s6.66185 2.98258 6.66185 6.66187z" fill="#7a0000"/></g><g transform="translate(50.6479 61.9741)"><g><use x="91.925003" y="81.962997" width="100%" height="100%" xlink:href="#symbol2075"/><use x="96.906998" y="81.962997" width="100%" height="100%" xlink:href="#symbol5813"/><use x="101.888" y="81.962997" width="100%" height="100%" xlink:href="#symbol670"/></g></g></g></svg>
