<?xml version="1.0" encoding="UTF-8"?>
<svg version="1.1" viewBox="0 0 1000 750" xmlns="http://www.w3.org/2000/svg"><defs><marker id="marker13481" overflow="visible" orient="auto"><path transform="matrix(-.4 0 0 -.4 -4 0)" d="m0 0 5-5-17.5 5 17.5 5z" fill-rule="evenodd" stroke="#000" stroke-width="1pt"/></marker><marker id="marker13417" overflow="visible" orient="auto"><path transform="matrix(-.4 0 0 -.4 -4 0)" d="m0 0 5-5-17.5 5 17.5 5z" fill-rule="evenodd" stroke="#000" stroke-width="1pt"/></marker><marker id="marker13359" overflow="visible" orient="auto"><path transform="matrix(-.4 0 0 -.4 -4 0)" d="m0 0 5-5-17.5 5 17.5 5z" fill-rule="evenodd" stroke="#000" stroke-width="1pt"/></marker><marker id="marker13307" overflow="visible" orient="auto"><path transform="matrix(-.4 0 0 -.4 -4 0)" d="m0 0 5-5-17.5 5 17.5 5z" fill-rule="evenodd" stroke="#000" stroke-width="1pt"/></marker><marker id="marker13261" overflow="visible" orient="auto"><path transform="matrix(-.4 0 0 -.4 -4 0)" d="m0 0 5-5-17.5 5 17.5 5z" fill-rule="evenodd" stroke="#000" stroke-width="1pt"/></marker><marker id="marker13221" overflow="visible" orient="auto"><path transform="matrix(-.4 0 0 -.4 -4 0)" d="m0 0 5-5-17.5 5 17.5 5z" fill-rule="evenodd" stroke="#000" stroke-width="1pt"/></marker><marker id="marker13187" overflow="visible" orient="auto"><path transform="matrix(-.4 0 0 -.4 -4 0)" d="m0 0 5-5-17.5 5 17.5 5z" fill-rule="evenodd" stroke="#000" stroke-width="1pt"/></marker><marker id="Arrow1Mend" overflow="visible" orient="auto"><path transform="matrix(-.4 0 0 -.4 -4 0)" d="m0 0 5-5-17.5 5 17.5 5z" fill-rule="evenodd" stroke="#000" stroke-width="1pt"/></marker></defs><g><g transform="matrix(2 0 0 2 -428.957 -78.7903)"><rect x="487.01" y="52.0135" width="63.3323" height="63.3323" fill="#fff" stroke="#070e9c" stroke-width="2.5"/><path transform="scale(1,-1)" d="m542.246-62.9423-47.1404-1e-6 23.5702-40.8248z" fill="#fdcece" stroke="#000" stroke-width="1.3"/><g transform="translate(.334682 1.35951)" fill="none" stroke="#000" stroke-dasharray="2.8, 1.4" stroke-width="1.4"><path d="m518.599 50.5188-0.0139 24.698 31.837 18.3108"/><path d="m518.585 75.2168-31.6806 18.3613"/></g></g><g transform="matrix(2 0 0 2 -429.805 -860.925)"><rect x="487.434" y="729.512" width="63.3323" height="63.3323" fill="#fff" stroke="#070e9c" stroke-width="2.5"/><path d="m542.67 781.916h-47.1404l23.5702-40.8248z" fill="#fdcece" stroke="#000" stroke-width="1.3"/><g transform="matrix(1 0 0 -1 .358195 843.498)" fill="none" stroke="#000" stroke-dasharray="2.8, 1.4" stroke-width="1.4"><path d="m518.599 50.5188-0.0139 24.698 31.837 18.3108"/><path d="m518.585 75.2168-31.6806 18.3613"/></g></g><g transform="matrix(2 0 0 2 -576.574 -325.506)"><rect transform="scale(1,-1)" x="712.453" y="-238.703" width="63.3323" height="63.3323" fill="#fff" stroke="#070e9c" stroke-width="2.5"/><path d="m733.172 216.518-10.9475-18.9612h43.7899l-10.9475 18.9612z" fill="#fdcece" stroke="#000" stroke-width="1.65662"/><g fill="none" stroke="#000" stroke-dasharray="2.8, 1.4" stroke-width="1.4"><g transform="translate(225.594 124.437)"><path d="m518.599 50.5188-0.0139 24.698 31.837 18.3108"/><path d="m518.585 75.2168-31.6806 18.3613"/></g><path d="m744.179 199.433v39.5865"/></g></g><g transform="matrix(2 0 0 2 -598.16 -585.44)"><rect x="723.246" y="591.769" width="63.3323" height="63.3323" fill="#fff" stroke="#070e9c" stroke-width="2.5"/><path d="m743.965 613.955-10.9475 18.9612h43.7899l-10.9475-18.9612z" fill="#fdcece" stroke="#000" stroke-width="1.65662"/><g transform="matrix(1 0 0 -1 10.6333 830.337)" fill="none" stroke="#000" stroke-dasharray="2.8, 1.4" stroke-width="1.4"><g transform="translate(225.594 124.437)"><path d="m518.599 50.5188-0.0139 24.698 31.837 18.3108"/><path d="m518.585 75.2168-31.6806 18.3613"/></g><path d="m744.179 199.433v39.5865"/></g></g><g transform="matrix(2 0 0 2 -375.807 -564.18)" stroke="#000"><rect x="612.07" y="485.698" width="63.3323" height="63.3323" fill="#fff" stroke-width="1.04868"/><path d="m635.787 503.596-15.8985 27.5366h31.7971l15.8986-27.5366z" fill="#fdcece" stroke-width="1.3"/><g fill="none" stroke-dasharray="2.8, 1.4" stroke-width="1.4"><path d="m644.005 516.276 31.837 18.3108"/><path d="m644.005 516.276v32.9543"/><path d="m644.005 516.276-31.6806-18.3613"/><path d="m644.005 516.276v-31.1379"/></g></g><g transform="matrix(2 0 0 2 -1102.81 -555.492)"><rect x="975.573" y="385.842" width="63.3323" height="63.3323" fill="#fff" stroke="#070e9c" stroke-width="2.5"/><g fill="none" stroke="#000"><path d="m981.1 417.639 52.2781-0.26285" stroke-width="2.08243"/><path d="m1007.02 417.552v31.2972" stroke-dasharray="2.8, 1.4" stroke-width="1.4"/><path d="m1007.02 417.552v-31.6327" stroke-dasharray="2.8, 1.4" stroke-width="1.4"/></g></g><g transform="matrix(2 0 0 2 -459.079 -587.343)"><rect x="242.041" y="497.28" width="63.3323" height="63.3323" fill="#fff" stroke="#070e9d" stroke-width="2.5"/><g fill="none" stroke="#000"><path d="m261.831 549.517 23.7534-41.142" stroke-width="1.3"/><path d="m274.027 528.059 31.837 18.3108" stroke-dasharray="2.8, 1.4" stroke-width="1.4"/><path d="m274.027 528.059-31.6806-18.3613" stroke-dasharray="2.8, 1.4" stroke-width="1.4"/></g></g><g transform="matrix(2 0 0 2 -362.508 -395.613)"><rect x="193.755" y="305.957" width="63.3323" height="63.3323" fill="#fff" stroke="#070e9c" stroke-width="2.5"/><g fill="none" stroke="#000"><path d="m214.77 319.223 21.053 36.465-0.26617 0.15389" stroke-width="1.3"/><path d="m225.186 336.877-31.6806 18.3613" stroke-dasharray="2.8, 1.4" stroke-width="1.4"/><path d="m225.186 336.877 31.837-18.3108" stroke-dasharray="2.8, 1.4" stroke-width="1.4"/></g></g><g transform="matrix(1.63745 0 0 1.63745 -435.858 -254.796)" stroke="#000"><path d="m382.471 357 375.877 23.756" fill="none" stroke-dasharray="2.44282, 1.22141" stroke-width=".610704"/><g stroke-linejoin="round"><path d="m758.348 380.756-306.418 45.031 78.9234-198.728z" fill="#ff1818" fill-opacity=".6"/><path d="m758.348 380.756-306.418 45.031 79.0489 122.849z" fill="#d00" fill-opacity=".6" stroke-width=".610704"/><path d="m451.93 425.787-69.4591-68.787 148.508 191.636z" fill="#cb0000" fill-opacity=".73121"/><path d="m530.854 227.059-148.382 129.941 69.4591 68.787z" fill="#b00000" fill-opacity=".667067" stroke-width=".610704"/></g><path d="m530.983 228.898 0.10897 317.782" fill="none" stroke-dasharray="11.9991, 11.9991" stroke-linecap="round" stroke-width="2.99978"/></g><g fill="none" stroke="#000" stroke-dasharray="12,2" stroke-width="2"><path d="m158.212 469.798 138.195-25.5217" marker-end="url(#Arrow1Mend)"/><path d="m157.552 280.611 29.0563 41.9421" marker-end="url(#marker13187)"/><path d="m535.091 86.7962-91.5172 23.6972" marker-end="url(#marker13221)"/><path d="m537.662 664.839-97.2468-15.9289" marker-end="url(#marker13481)"/><path d="m840.129 667.209-212.216-153.972" marker-end="url(#marker13417)"/><path d="m840.834 85.9664-221.315 149.301" marker-end="url(#marker13261)"/><path d="m842.601 286.356-32.3884 73.1189" marker-end="url(#marker13307)"/><path d="m841.784 474.803-256.688-65.8121" marker-end="url(#marker13359)"/></g><g transform="translate(-50.1004 -24.7698)" stroke="#070e9f"><g fill="none" stroke-linecap="round" stroke-width="7.2"><path d="m354.257 467.18 129.439 201.16 372.306-274.896-372.512-251.672-242.969 212.772 243.175 313.795" stroke="#070f9c" stroke-linejoin="round"/><path d="m483.703 144.785-129.446 322.396" stroke="#070e9f"/></g></g></g></svg>
