<?xml version="1.0" encoding="UTF-8"?>
<svg width="600.279pt" height="391.06pt" version="1.2" viewBox="0 0 180.084 117.318" xmlns="http://www.w3.org/2000/svg"><g transform="translate(15.0419 -16.3409)" stroke="#000" stroke-linejoin="round" stroke-width="1.60718"><path d="m69.4023 71.1836 4.55469 13.1641-4.25781 1.46094-4.55469-13.1641z" fill="#300"/><path d="m76.6133 91.5391-4.25781 1.45703-3.45703-2.86328 0.800781-4.32422 4.25781-1.46094 3.45703 2.86719z" fill="#260000"/><path d="m69.4023 71.1836-4.25781 1.46094-6.15625-4.51953 2.35938-7.4375 4.25781-1.46094 6.15625 4.51953z" fill="#420000"/><path d="m74.5391 60.2461-2.77734 3.5-6.15625-4.51953 2.78125-3.5z" fill="#450000"/><path d="m54.8789 66.9844 2.35938-7.4375 4.10938 1.14062-2.35938 7.4375z" fill="#4c0000"/><path d="m76.6133 91.5391 0.800781-4.32422 13.5508 1.83203-0.800782 4.32422z" fill="#190000"/><path d="m75.2578 47.6211 6.15625 4.51953-0.238281 4.20703-6.63672 3.89844-6.15234-4.51953 0.238281-4.20703z" fill="#4a0000"/><path d="m77.4141 87.2148-3.45703-2.86719-4.55469-13.1641 2.35938-7.4375 2.77734-3.5 6.63672-3.89844 13.5508 1.83203 3.45703 2.86719 4.55469 13.1641-2.35937 7.4375-2.77735 3.5-6.63672 3.89844z" fill="#280000"/><path d="m81.1758 56.3477 0.238281-4.20703 13.5508 1.83203-0.238282 4.20703z" fill="#3f0000"/><path d="m63.6133 102.473-3.45703-2.86719 8.74219-9.47266 3.45703 2.86328z" fill="#2e0000"/><path d="m75.2578 47.6211-6.63281 3.89844-2.39453-3.30469 6.63672-3.89844z" fill="#540000"/><path d="m98.1836 61.0469 3.69922-1.34375 4.55469 13.1641-3.69922 1.34375z" fill="#2b0000"/><path d="m66.2305 48.2148 2.39453 3.30469-0.238281 4.20703-2.78125 3.5-4.25781 1.46094-4.10938-1.14062-2.39453-3.30469 0.242188-4.20703 2.77734-3.50391 4.25781-1.45703z" fill="#540000"/><path d="m105.414 86.3984-2.77734 3.50391-5.03516-4.75391 2.77735-3.5z" fill="#100"/><path d="m54.8438 56.2422 2.39453 3.30469-2.35938 7.4375-7.14453 0.824219-2.39453-3.30469 2.36328-7.4375z" fill="#570000"/><path d="m95.1992 98.1211-5.03516-4.75 0.800782-4.32422 6.63672-3.89844 5.03516 4.75391-0.80078 4.32422z" fill="#0a0000"/><path d="m102.121 55.4961-0.23828 4.20703-3.69922 1.34375-3.45703-2.86719 0.238282-4.20703 3.69922-1.34375z" fill="#3a0000"/><path d="m54.8438 56.2422-7.14062 0.824218 0.238281-4.20703 7.14453-0.824219z" fill="#5e0000"/><path d="m103.32 97.7188-6.63281 3.89844-1.48828-3.4961 6.63672-3.89453z"/><path d="m109.113 85.0547-3.69922 1.34375-5.03515-4.75 2.35937-7.4375 3.69922-1.34375 5.03516 4.75391z" fill="#190000"/><path d="m56.2773 42.3555 4.25781-1.46094 1.58594 6.17969-4.25781 1.45703z" fill="#630000"/><path d="m38.1875 81.6094 0.800781-4.32422 8.74609-9.47656 7.14453-0.824219 4.10938 1.14062 6.15625 4.51953 4.55469 13.1641-0.800781 4.32422-8.74219 9.47266-7.14453 0.828121-4.10938-1.14062-6.15625-4.51953z" fill="#450000"/><path d="m38.9883 77.2852-2.39062-3.30469 8.74219-9.47656 2.39453 3.30469z" fill="#5c0000"/><path d="m67.1719 37 4.10938 1.14062 1.58594 6.17578-6.63672 3.89844-4.10938-1.14062-1.58594-6.17969z" fill="#5e0000"/><path d="m60.1562 99.6055 3.45703 2.86719-0.226562 6.55468-7.14453 0.82422-3.46094-2.86328 0.230469-6.55469z" fill="#380000"/><path d="m109.113 85.0547 2.35938-7.43359 3.20312 1.32812-2.35937 7.4375z" fill="#1c0000"/><path d="m48.9023 99.293 4.10938 1.14062-0.230469 6.55469-4.10938-1.14062z" fill="#450000"/><path d="m46.3555 46.6836 2.78125-3.50391 7.14062-0.824219 1.58594 6.17578-2.77734 3.50391-7.14453 0.824219z" fill="#600"/><path d="m34.9961 82.625 3.19141-1.01562 4.55859 13.1641-3.19141 1.01953z" fill="#590000"/><path d="m64.8711 112.52-7.14453 0.82813-1.48437-3.4961 7.14453-0.82422z" fill="#380000"/><path d="m110.223 97.707-3.69922 1.33984-3.20313-1.32812-1.48437-3.49219 0.80078-4.32422 2.77734-3.50391 3.69922-1.34375 3.20313 1.33203 1.48437 3.49219-0.80078 4.32422z" fill="#0f0000"/><path d="m33.4062 74.9961 3.19141-1.01562 2.39062 3.30469-0.800781 4.32422-3.19141 1.01562-2.39062-3.30469z" fill="#610000"/><path d="m102.121 55.4961-3.45703-2.86719 5.8086-8.86328 3.45703 2.86719z" fill="#450000"/><path d="m103.32 97.7188 3.20313 1.32812-0.22656 6.5586-6.63672 3.89453-3.20312-1.32812 0.230469-6.55469z" fill="#070000"/><path d="m69.9062 117.273-5.03516-4.75391-1.48438-3.49219 0.226562-6.55468 8.74219-9.47657 4.25781-1.45703 13.5508 1.83203 5.03516 4.75 1.48828 3.4961-0.230469 6.55469-8.74219 9.47265-4.25781 1.46094z" fill="#190000"/><path d="m48.9023 99.293-0.230469 6.55469-3.19141 1.01953-6.15625-4.51953 0.230469-6.55469 3.19141-1.01953z" fill="#4f0000"/><path d="m106.523 99.0469 3.69922-1.33984-0.23047 6.55469-3.69531 1.34375z" fill="#100"/><path d="m87.7148 117.645 8.74219-9.47265 3.20312 1.32812-8.74219 9.47266z" fill="#170000"/><path d="m67.1719 37 5.80859-8.86328 4.10938 1.14062-5.80859 8.86328z" fill="#680000"/><path d="m112.316 86.3867 2.35937-7.4375 5.32813-0.449219 1.48828 3.49219-2.35938 7.4375-5.33203 0.449218z" fill="#210000"/><path d="m118.332 93.7539-5.33203 0.449219 0.80078-4.32422 5.33203-0.449218z" fill="#1c0000"/><path d="m69.9062 117.273 13.5508 1.83203-1.05469 2.78906-13.5508-1.83203z" fill="#2e0000"/><path d="m44.4258 109.656-6.15625-4.51953 1.05469-2.78906 6.15625 4.51953z" fill="#540000"/><path d="m61.707 120.887-5.03516-4.75 1.05469-2.78906 7.14453-0.82813 5.03516 4.75391-1.05469 2.78906z" fill="#380000"/><path d="m57.7266 113.348-1.05469 2.78906-3.19141 1.01562-4.11328-1.14062-3.45703-2.86328-1.48438-3.49219 1.05469-2.78906 3.19141-1.01953 4.10938 1.14062 3.46094 2.86328z" fill="#470000"/><path d="m81.4141 52.1406-6.15625-4.51953-2.39062-3.30469-1.58594-6.17578 5.80859-8.86328 3.69922-1.34375 13.5508 1.83203 6.15625 4.51953 2.39063 3.30469 1.58594 6.17578-5.8086 8.86328-3.69922 1.34375z" fill="#570000"/><path d="m89.8633 121.762-4.25781 1.46094-3.20312-1.32813 1.05469-2.78906 4.25781-1.46094 3.20312 1.32813z" fill="#260000"/><path d="m49.1367 43.1797-2.78125 3.50391-7.96875-4.14062 2.77734-3.50391z" fill="#780000"/><path d="m58.5156 121.906-5.03516-4.75391 3.19141-1.01562 5.03516 4.75z" fill="#450000"/><path d="m118.332 93.7539-0.23047 6.55468-2.77734 3.50391-5.33203 0.44922 0.23047-6.55469 2.77734-3.50391z" fill="#190000"/><path d="m33.4062 74.9961-0.800781 4.32422-7.96875-4.14062 0.800781-4.32422z" fill="#700000"/><path d="m108.219 37.1406 3.45703 2.86328 1.58594 6.17969-5.33203 0.449218-3.45703-2.86719-1.58594-6.17578z" fill="#570000"/><path d="m77.0898 29.2773-4.10938-1.14062-0.410157-2.48438 3.69531-1.34375 4.10938 1.14062 0.414062 2.48438z" fill="#730000"/><path d="m80.7891 27.9336-0.414062-2.48438 13.5508 1.83203 0.414063 2.48438z" fill="#700000"/><path d="m105.824 33.8359 2.39453 3.30469-5.33203 0.449219-2.39063-3.30469z" fill="#610000"/><path d="m121.5 52.2617 4.55469 13.168-0.23828 4.20703-5.8125 8.86328-5.32813 0.449219-3.20312-1.32812-5.03516-4.75391-4.55469-13.1641 0.23828-4.20703 5.8086-8.86328 5.33203-0.449218 3.20312 1.32812z" fill="#3a0000"/><path d="m46.1836 118.484-3.45703-2.86719 3.18359-2.46875 3.45703 2.86328z" fill="#540000"/><path d="m111.676 40.0039 3.20313 1.32812 1.58593 6.17969-3.20312-1.32812z" fill="#570000"/><path d="m121.492 81.9922-1.48828-3.49219 5.8125-8.86328 1.48437 3.49219z" fill="#350000"/><path d="m42.7266 115.617-6.15625-4.51563-1.48437-3.49609 3.18359-2.46875 6.15625 4.51953 1.48438 3.49219z" fill="#5c0000"/><path d="m35.1953 43.5586-0.414062-2.48047 2.78125-3.50391 3.19141-1.01953 0.410156 2.48437-2.77734 3.50391z" fill="#870000"/><path d="m23.8516 64.6797 0.238282-4.20703 2.35938-7.4375 8.74609-9.47656 3.19141-1.01562 7.96875 4.14062 1.58594 6.17578-0.238281 4.20703-2.36328 7.4375-8.74219 9.47656-3.19141 1.01562-7.96875-4.14062z" fill="#750000"/><path d="m121.5 52.2617 1.72266-0.710938 4.55859 13.1641-1.72656 0.714844z" fill="#4c0000"/><path d="m58.5156 121.906-3.1875 2.46875-4.10938-1.14062-5.03516-4.75 3.18359-2.47266 4.11328 1.14062z" fill="#4f0000"/><path d="m99.2578 26.832 6.15625 4.51953 0.41016 2.48438-5.32813 0.449218-6.15625-4.51953-0.414063-2.48438z" fill="#680000"/><path d="m127.781 64.7148 1.48437 3.49609-0.23828 4.20703-1.72656 0.710937-1.48437-3.49219 0.23828-4.20703z" fill="#450000"/><path d="m26.4492 53.0352-0.410157-2.48438 8.74219-9.47266 0.414062 2.48047z" fill="#8c0000"/><path d="m93.082 126.891-4.25781 1.46093-3.21875-5.1289 4.25781-1.46094z" fill="#300"/><path d="m72.5703 25.6523-7.96875-4.14062 3.69531-1.34375 7.96875 4.14062z" fill="#820000"/><path d="m21.4492 77.6484-1.58594-6.17578 0.800781-4.32422 3.1875-2.46875 1.58594 6.17578-0.800781 4.32422z" fill="#820000"/><path d="m121.5 52.2617-5.03516-4.75-1.58593-6.17969 1.72656-0.710937 5.03125 4.75 1.58594 6.17969z" fill="#590000"/><path d="m107.137 30.6367-1.72266 0.714843-6.15625-4.51953 1.72266-0.710937z" fill="#730000"/><path d="m20.9062 62.9414 3.18359-2.46875-0.238282 4.20703-3.1875 2.46875z" fill="#8a0000"/><path d="m121.324 105.438-2.78125 3.50391-3.21875-5.12891 2.77734-3.50391z" fill="#2b0000"/><path d="m56.2773 42.3555-7.14062 0.824219-7.97266-4.14063-0.410156-2.48437 5.80859-8.86328 6.63672-3.89453 4.25781-1.46094 7.14453-0.824219 7.96875 4.14062 0.410157 2.48438-5.80859 8.86328-6.63672 3.89453z" fill="#7d0000"/><path d="m110.34 31.9688 3.46094 2.86328 2.39063 3.30469 0.41406 2.48438-1.72656 0.710937-3.20313-1.32812-3.45703-2.86328-2.39453-3.30469-0.41016-2.48438 1.72266-0.714843z" fill="#600"/><path d="m40.7539 36.5547-3.19141 1.01953 5.80859-8.86328 3.19141-1.01953z" fill="#910000"/><path d="m18.8086 74.2617 1.05469-2.78906 1.58594 6.17578-1.05469 2.78906z" fill="#8a0000"/><path d="m32.6055 79.3203 2.39062 3.30469 4.55859 13.168-0.230469 6.55469-1.05469 2.78906-3.18359 2.46875-7.96875-4.14063-2.39453-3.30468-4.55469-13.1641 0.226562-6.55859 1.05469-2.78906 3.1875-2.46875z" fill="#6e0000"/><path d="m121.637 45.3711-5.03125-4.75-0.41406-2.48438 5.03515 4.75z" fill="#630000"/><path d="m36.5703 111.102-7.96875-4.14062-1.48437-3.4961 7.96875 4.14063z" fill="#6e0000"/><path d="m20.4922 60.457 2.35937-7.4375 3.1875-2.46875 0.410157 2.48438-2.35938 7.4375-3.18359 2.46875z" fill="#910000"/><path d="m20.168 86.9961 4.55469 13.1641-0.90625 0.1875-4.55469-13.1641z" fill="#850000"/><path d="m123.051 104.727-1.05469 2.78907-2.78125 3.5-1.72656 0.71484 1.05469-2.78906 2.78125-3.50391z" fill="#3a0000"/><path d="m54.4414 128.363-3.22266-5.1289 4.10938 1.14062 3.22266 5.12891z" fill="#570000"/><path d="m98.4141 126.441-5.33203 0.44922-3.21875-5.12891 1.05469-2.78906 8.74219-9.47266 6.63672-3.89453 3.69531-1.34375 5.33203-0.44922 3.21875 5.12891-1.05469 2.78906-8.74219 9.47266-6.63281 3.89843z" fill="#280000"/><path d="m53.1992 23.7969 0.25-1.85938 4.25781-1.46094-0.25 1.85938z" fill="#900"/><path d="m20.4922 60.457-0.90625 0.1875 2.35937-7.43359 0.90625-0.191407z" fill="#9c0000"/><path d="m113.801 34.832-3.46094-2.86328 0.25-1.85938 3.46094 2.86328z" fill="#730000"/><path d="m27.6953 107.148-2.39453-3.30469-1.48438-3.49609 0.90625-0.1875 2.39453 3.30468 1.48437 3.4961z" fill="#7d0000"/><path d="m57.457 22.3359 0.25-1.85938 3.69531-1.34375 7.14453-0.824218-0.25 1.85938-3.69531 1.34375z" fill="#970000"/><path d="m132.246 77.5469-3.21875-5.12891 0.23828-4.20703 3.21875 5.12891z" fill="#4c0000"/><path d="m100.98 26.1211 0.25391-1.85938 3.20312 1.32812 6.15234 4.51953-0.25 1.85938-3.20312-1.33203z" fill="#780000"/><path d="m53.1992 23.7969-6.63672 3.89453-3.19141 1.01953 0.25-1.85938 6.63672-3.89844 3.19141-1.01562z" fill="#9e0000"/><path d="m98.4141 126.441-3.18359 2.47265-4.26172 1.45703-5.32812 0.44922 3.18359-2.46875 4.25781-1.46093z" fill="#420000"/><path d="m17.6758 81.0039 0.226563-6.55469 0.90625-0.1875 1.58594 6.17578-0.226562 6.55859-0.90625 0.1875z" fill="#8f0000"/><path d="m68.8516 120.062 13.5508 1.83203 3.20312 1.32813 3.21875 5.1289-3.18359 2.46875-3.19141 1.01953-7.14453 0.82813-13.5508-1.83594-3.20312-1.32812-3.22266-5.12891 3.1875-2.46875 3.19141-1.01953z" fill="#450000"/><path d="m110.473 120.492-1.72657 0.71094 8.74219-9.47266 1.72656-0.71484z" fill="#3f0000"/><path d="m17.9023 74.4492-0.410156-2.48438 0.238281-4.20703 0.800781-4.32422 1.05469-2.78906 0.90625-0.1875 0.414062 2.48438-0.242188 4.20703-0.800781 4.32422-1.05469 2.78906z" fill="#970000"/><path d="m121.227 42.8867-5.03515-4.75-2.39063-3.30469 0.25-1.85938 5.03516 4.75 2.39062 3.30469z" fill="#6e0000"/><path d="m98.9258 127.57-3.69531 1.34375 3.18359-2.47265 3.69922-1.33985z" fill="#450000"/><path d="m119.133 89.4297 2.35938-7.4375 5.80859-8.86328 1.72656-0.710937 3.21875 5.12891-0.22656 6.55469-0.80078 4.32422-2.35938 7.4375-5.80859 8.86328-1.72656 0.71094-3.22266-5.12891 0.23047-6.55468z" fill="#380000"/><path d="m70.2734 17.5938-1.72656 0.714844-7.14453 0.824218 1.72656-0.710937z" fill="#9e0000"/><path d="m87.7773 131.391-5.32812 0.44922 3.19141-1.01953 5.32812-0.44922z" fill="#4c0000"/><path d="m58.5508 129.504 3.20312 1.32812-0.90625 0.19141-4.11328-1.14063-3.20312-1.33203 0.910156-0.1875z" fill="#610000"/><path d="m17.4922 71.9648 0.410156 2.48438-0.226563 6.55469-0.414062-2.48438z" fill="#970000"/><path d="m49.3477 23.1445 0.910156-0.191406-6.63672 3.89844-0.90625 0.1875z" fill="#a80000"/><path d="m60.8477 131.023 0.90625-0.19141 13.5508 1.83594-0.90625 0.1875z" fill="#5c0000"/><path d="m123.051 104.727 5.80859-8.86328-1.05468 2.78516-5.8086 8.86719z" fill="#450000"/><path d="m107.285 122.961-6.63282 3.89453-1.72656 0.71484 3.1875-2.46875 6.63281-3.89843 1.72657-0.71094z" fill="#470000"/><path d="m80.375 25.4492-4.10938-1.14062-7.96875-4.14062 0.25-1.85938 1.72656-0.714844 5.32812-0.449219 13.5508 1.83203 4.11328 1.14063 7.96876 4.14453-0.25391 1.85938-1.72266 0.710937-5.33203 0.449219z" fill="#870000"/><path d="m18.5312 63.4336 0.25-1.85938 2.35938-7.4375 1.05469-2.78516-0.25 1.85938-2.35937 7.43359z" fill="#a60000"/><path d="m17.7305 67.7578 0.25-1.85937 0.800781-4.32422-0.25 1.85938z" fill="#a60000"/><path d="m101.234 24.2617-7.96876-4.14453 3.20312 1.33203 7.96875 4.14062z" fill="#8c0000"/><path d="m131.219 88.4258 0.80078-4.32422 0.25-1.85937-0.80078 4.32422z" fill="#570000"/><path d="m87.7773 131.391-0.90625 0.1875-7.14453 0.82813-5.32812 0.44922 0.90625-0.1875 7.14453-0.82813z" fill="#570000"/><path d="m132.484 73.3398 0.25391-1.85938-0.23047 6.55469-0.23828 4.20703-0.25 1.85937 0.22656-6.55469z" fill="#590000"/><path d="m57.707 20.4766-4.25781 1.46094-3.19141 1.01562-0.910156 0.191406 1.72656-0.714843 3.69531-1.34375 4.26172-1.45703 3.19141-1.01953 0.90625-0.1875-1.72656 0.710937z" fill="#a80000"/><path d="m30.9141 112.277-2.39062-3.30468-3.22266-5.12891 2.39453 3.30469z" fill="#850000"/><path d="m107.285 122.961-0.90625 0.1875-6.63672 3.89844 0.910152-0.19141z" fill="#510000"/><path d="m75.6016 17.1445-0.90625 0.1875 13.5508 1.83594 0.90625-0.191407z" fill="#a10000"/><path d="m67.5508 18.1602 7.14453-0.828125 0.90625-0.1875-5.32812 0.449219-7.14453 0.828125-0.90625 0.1875z" fill="#a60000"/><path d="m17.4922 71.9648-0.230469 6.55469 0.253906-1.85938 0.238281-4.20703 0.226563-6.55469-0.25 1.85937z" fill="#a30000"/><path d="m30.9141 112.277-3.21875-5.1289 0.90625-0.1875 7.96875 4.14062 6.15625 4.51563 3.45703 2.86719 5.03516 4.75 3.22266 5.1289-0.910156 0.1875-7.96875-4.14062-6.15234-4.51953-3.46094-2.86329z" fill="#6e0000"/><path d="m127.805 98.6484 1.05468-2.78516 2.35938-7.4375 0.25-1.85938-1.05469 2.78906-2.35937 7.43359z" fill="#570000"/><path d="m95.2305 128.914 3.69531-1.34375 1.72656-0.71484-0.910152 0.19141-3.19141 1.01562-4.25781 1.46094-3.69531 1.34375-1.72656 0.71093 0.90625-0.1875 3.19141-1.01953z" fill="#540000"/><path d="m122.305 42.8516 2.39453 3.30469-3.22266-5.12891-2.39062-3.30469z" fill="#780000"/><path d="m56.7344 129.883-7.96875-4.14453-3.20312-1.32812 7.96875 4.14062z" fill="#700000"/><path d="m132.738 71.4805-0.41406-2.48438-0.22656 6.55469 0.41015 2.48438z" fill="#630000"/><path d="m88.5977 130.867-7.14453 0.82422-1.72656 0.71484 7.14453-0.82813z" fill="#5e0000"/><path d="m126.184 49.6523 4.55469 13.1641 1.58594 6.17969 0.41406 2.48438-0.25391 1.85938-3.21875-5.12891-1.48437-3.49609-4.55859-13.1641-1.58594-6.17969-0.41016-2.48438 0.25-1.85938 3.22266 5.12891z" fill="#610000"/><path d="m37.5625 37.5742-2.78125 3.50391-8.74219 9.47266-3.1875 2.46875-0.90625 0.191407 0.25-1.85938 5.80859-8.86719 2.78125-3.5 8.74219-9.47656 3.1875-2.46875 0.90625-0.1875-0.25 1.85938z" fill="#a60000"/><path d="m39.5273 29.5078 1.72656-0.710937 6.63281-3.89844 3.1875-2.46875-1.72656 0.714843-6.63281 3.89453z" fill="#b30000"/><path d="m88.2461 19.168 3.20312 1.32812 4.10938 1.14062 0.910156-0.1875-3.20312-1.33203-4.11328-1.14063z" fill="#9c0000"/><path d="m64.3594 19.1797 3.19141-1.01953-5.32812 0.449219-3.19141 1.01953z" fill="#b00000"/><path d="m47.8867 24.8984 3.69922-1.33984 3.18359-2.47266-3.69531 1.34375z" fill="#b80000"/><path d="m21.1406 54.1367 5.80859-8.86328 1.05469-2.78906-5.80859 8.86719z" fill="#b50000"/><path d="m128.055 96.7891 2.35937-7.43359-0.90625 0.1875-2.35937 7.4375z" fill="#610000"/><path d="m32.5117 38.2695 8.74219-9.47266-1.72656 0.710937-8.74219 9.47656z" fill="#bd0000"/><path d="m125.277 49.8398 4.55469 13.1641 0.90625-0.1875-4.55469-13.1641z" fill="#780000"/><path d="m124.699 46.1562-2.39453-3.30469-0.90625 0.1875 1.48437 3.49609 2.39453 3.30469 0.90625-0.1875z" fill="#7f0000"/><path d="m35.9492 117.027 3.46094 2.86329 0.25-1.85938-3.46094-2.86328z" fill="#870000"/><path d="m96.5508 128.062 0.25-1.85937-4.25781 1.46093-0.25 1.85938z" fill="#610000"/><path d="m35.9492 117.027 0.25-1.85937-2.39062-3.30469-5.03516-4.75-0.25 1.85938 2.39062 3.30468z" fill="#8c0000"/><path d="m28.0039 42.4844-1.05469 2.78906 1.72656-0.710938 2.78125-3.50391 1.05469-2.78906-1.72656 0.714844z" fill="#c20000"/><path d="m106.379 123.148 0.25-1.85938-3.19141 1.01953-6.63672 3.89454-0.25 1.85937 3.19141-1.01562z" fill="#5e0000"/><path d="m51.5859 23.5586 5.33203-0.449219 4.25781-1.46094 3.18359-2.46875-5.32812 0.449218-4.26172 1.45703z" fill="#b80000"/><path d="m132.508 78.0352-0.41015-2.48438-0.90625 0.1875-1.05469 2.78906-0.80078 4.32422-0.24219 4.20703 0.41406 2.48438 0.90625-0.1875 1.05469-2.78906 0.80078-4.32422z" fill="#600"/><path d="m129.605 69.5625 1.58594 6.17578 0.90625-0.1875 0.22656-6.55469-1.58594-6.17969-0.90625 0.1875z" fill="#6e0000"/><path d="m48.7656 125.738 0.253906-1.85937-6.15625-4.51563-3.20312-1.33203-0.25 1.85938 6.15234 4.51953z" fill="#820000"/><path d="m92.543 127.664-7.14453 0.82422-3.69531 1.34375-0.25 1.85938 7.14453-0.82422 3.69531-1.34375z" fill="#600"/><path d="m20.9727 77.582-3.21875-5.12891-0.238281 4.20703 3.21875 5.12891z" fill="#b00000"/><path d="m33.3945 109.379-5.03125-4.75 0.410157 2.48437 5.03516 4.75z" fill="#970000"/><path d="m19.2617 87.1836 4.55469 13.1641 1.48438 3.49609 3.22266 5.12891 0.25-1.85938-0.410157-2.48437-1.58594-6.17969-4.55859-13.1641-1.48438-3.49609-3.21875-5.12891-0.253906 1.85938 0.414062 2.48438z" fill="#900"/><path d="m128.551 72.3516 1.58594 6.17578 1.05469-2.78906-1.58594-6.17578z" fill="#730000"/><path d="m50.7422 123.168-6.15625-4.51953-1.72266 0.71484 6.15625 4.51563z" fill="#8a0000"/><path d="m98.7812 26.7656-3.22266-5.12891-4.10938-1.14062 3.22266 5.12891z" fill="#a30000"/><path d="m123.551 96.9648 0.41016 2.48438 3.1875-2.46875 2.35937-7.4375-0.41406-2.48438-3.18359 2.46875z" fill="#680000"/><path d="m121.996 107.516 5.8086-8.86719 0.25-1.85938-0.90625 0.191407-3.1875 2.46875-8.74219 9.47266-2.78125 3.5039-5.80859 8.86328-0.25 1.85938 0.90625-0.1875 3.1875-2.46875 8.74218-9.47656z" fill="#570000"/><path d="m126.148 85.3203-0.23828 4.20703 3.18359-2.46875 0.24219-4.20703z" fill="#700000"/><path d="m119.086 37.7227-5.03516-4.75-3.46094-2.86328-6.15234-4.51953-7.96875-4.14062-0.910156 0.1875 3.22266 5.12891 5.03516 4.75 3.45703 2.86719 6.15625 4.51563 7.96875 4.14062 0.90625-0.1875z" fill="#8f0000"/><path d="m23.9453 84.5703-1.72656 0.714844 4.55859 13.1641 1.72266-0.710938z" fill="#b00000"/><path d="m122.883 46.5352-1.48437-3.49609-7.96875-4.14062 1.48437 3.49609z" fill="#8f0000"/><path d="m103.438 122.309 3.19141-1.01953 5.80859-8.86328-3.19141 1.01953z" fill="#680000"/><path d="m22.6992 76.8711-1.72656 0.710937-0.238281 4.20703 1.48438 3.49609 1.72656-0.714844 0.238282-4.20703z" fill="#b80000"/><path d="m115.219 108.922 8.74219-9.47266-0.41016-2.48438-8.74609 9.47657z" fill="#6e0000"/><path d="m38.3242 109.996-3.20312-1.32812-1.72656 0.71094 0.414063 2.48437 2.39062 3.30469 3.46094 2.86328 3.20312 1.33203 1.72266-0.71484-0.410157-2.48438-2.39453-3.30468z" fill="#970000"/><path d="m79.7266 132.406 1.72656-0.71484 0.25-1.85938-7.96875-4.14062-4.10938-1.14063-13.5508-1.83203-5.33203 0.44922-1.72266 0.71094-0.253906 1.85937 7.96875 4.14453 4.11328 1.14063 13.5508 1.83203z" fill="#730000"/><path d="m33.3945 109.379 1.72656-0.71094-1.58594-6.17969-5.03516-4.75-1.72266 0.710938 1.58594 6.17969z" fill="#a30000"/><path d="m128.551 72.3516-3.1875 2.46875-0.80078 4.32422 1.58594 6.17578 3.1875-2.46875 0.80078-4.32422z" fill="#780000"/><path d="m31.8984 49.6914 2.77734-3.50391-3.21875-5.12891-2.78125 3.50391z" fill="#cf0000"/><path d="m81.7031 129.832 3.69531-1.34375-7.96875-4.14062-3.69531 1.34375z" fill="#780000"/><path d="m60.1367 28.2383 4.25781-1.46094-3.21875-5.12891-4.25781 1.46094z" fill="#ca0000"/><path d="m115.219 108.922-0.41406-2.48047-3.19141 1.01562-2.77734 3.50391 0.41015 2.48437 3.19141-1.01953z" fill="#730000"/><path d="m49.5039 115.715-5.32812 0.44922 0.410157 2.48438 6.15625 4.51953 5.33203-0.44922-0.414063-2.48437z" fill="#910000"/><path d="m100.629 33.9883 3.46093 2.86328 3.1836-2.46875-3.45703-2.86719z" fill="#a80000"/><path d="m36.7383 103.816-3.20312-1.32813 1.58594 6.17969 3.20312 1.32812z" fill="#a60000"/><path d="m55.6602 120.234 0.414063 2.48437 13.5508 1.83203-0.414062-2.48437z" fill="#8c0000"/><path d="m103.816 31.5156-5.03516-4.75-4.10938-1.14062-3.1875 2.46875 5.03516 4.75391 4.10938 1.14062z" fill="#ae0000"/><path d="m49.5039 115.715-2.39062-3.30468-5.33203 0.44922 2.39453 3.30468z" fill="#9c0000"/><path d="m17.9805 65.8984-0.226563 6.55469 3.21875 5.12891 1.72656-0.710937 5.80859-8.86328 2.35938-7.4375 0.800781-4.32422 0.230469-6.55469-3.22266-5.12891-1.72656 0.710938-5.80859 8.86328-2.35938 7.4375z" fill="#c20000"/><path d="m104.09 36.8516 1.48438 3.49219 6.15625 4.51953 3.18359-2.46875-1.48437-3.49609-6.15625-4.51563z" fill="#a10000"/><path d="m77.0195 121.863-4.10938-1.14062-3.69922 1.34375 0.414062 2.48437 4.10938 1.14063 3.69531-1.34375z" fill="#870000"/><path d="m74.6953 17.332-7.14453 0.828125-3.19141 1.01953-3.18359 2.46875 3.21875 5.12891 3.20312 1.32812 13.5508 1.83203 7.14453-0.824219 3.19141-1.01953 3.1875-2.46875-3.22266-5.12891-3.20312-1.32812z" fill="#b80000"/><path d="m24.1836 80.3633 5.8125-8.86328-1.48828-3.49219-5.80859 8.86328z" fill="#c70000"/><path d="m93.3281 33.8633 3.19141-1.01562-5.03516-4.75391-3.19141 1.01953z" fill="#b80000"/><path d="m60.1367 28.2383-1.05469 2.78906 3.20312 1.32812 4.25781-1.46094 1.05469-2.78906-3.20312-1.32812z" fill="#d40000"/><path d="m111.73 44.8633-6.15625-4.51953-1.05469 2.78906 6.15625 4.51953z" fill="#a60000"/><path d="m36.7383 103.816 1.58594 6.17968 3.45703 2.86329 5.33203-0.44922-1.58594-6.17578-3.45703-2.86719z" fill="#a60000"/><path d="m67.5977 28.1055-1.05469 2.78906 13.5508 1.83203 1.05469-2.78906z" fill="#cf0000"/><path d="m47.8867 24.8984-6.63281 3.89844-8.74219 9.47266-1.05469 2.78906 3.21875 5.12891 5.33203-0.449219 3.69531-1.34375 6.63672-3.89453 8.74219-9.47266 1.05469-2.78906-3.21875-5.12891-5.33203 0.449219z" fill="#d40000"/><path d="m40.0078 45.7383-5.33203 0.449219-2.77734 3.50391-0.230469 6.55469 5.33203-0.449219 2.77734-3.50391z" fill="#e10000"/><path d="m125.363 74.8203-7.96875-4.14062-0.80078 4.32422 7.96875 4.14062z" fill="#8a0000"/><path d="m36.1992 60.1211 0.800781-4.32422-5.33203 0.449219-0.800781 4.32422z" fill="#de0000"/><path d="m125.363 74.8203 3.1875-2.46875 1.05469-2.78906 0.22656-6.55859-4.55469-13.1641-2.39453-3.30469-7.96875-4.14062-3.18359 2.46875-1.05469 2.78906-0.23047 6.55469 4.5586 13.168 2.39062 3.30469z" fill="#8f0000"/><path d="m108.836 110.961 2.77734-3.50391-7.96875-4.14062-2.78125 3.5039z" fill="#820000"/><path d="m40.0078 45.7383-0.230468 6.55469 3.69922-1.33984 0.226563-6.55859z" fill="#eb0000"/><path d="m53.543 41.8281 8.74219-9.47266-3.20312-1.32812-8.74219 9.47266z" fill="#e30000"/><path d="m35.3242 71.0508 2.35938-7.4375-1.48438-3.49219-5.33203 0.449218-2.35938 7.4375 1.48828 3.49219z" fill="#d90000"/><path d="m101.328 44.1523 3.1914-1.01953 1.05469-2.78906-1.48438-3.49219-3.46093-2.86328-4.10938-1.14062-3.19141 1.01562-1.05469 2.78906 1.48437 3.49609 3.46094 2.86328z" fill="#b30000"/><path d="m92.2734 36.6523 1.05469-2.78906-5.03516-4.75-7.14453 0.824219-1.05469 2.78906 5.03516 4.75391z" fill="#c20000"/><path d="m107.254 55.2266 4.55859 13.1641 3.19141-1.01562-4.5586-13.168z" fill="#a30000"/><path d="m72.9102 120.723 4.10938 1.14062 5.80859-8.86328-4.10938-1.14062z" fill="#910000"/><path d="m108.836 110.961-7.97266-4.14063-7.14062 0.82422-4.25781 1.46094-6.63672 3.89453-5.80859 8.86328 0.410157 2.48438 7.96875 4.14062 7.14453-0.82422 4.25781-1.46093 6.63672-3.89454 5.80859-8.86328z" fill="#7d0000"/><path d="m116.594 75.0039 0.80078-4.32422-2.39062-3.30469-3.19141 1.01562-0.80078 4.32422 2.39062 3.30469z" fill="#900"/><path d="m93.7578 40.1484-1.48437-3.49609-7.14453 0.828125 1.48438 3.49219z" fill="#c50000"/><path d="m101.328 44.1523-0.23047 6.55469 6.15625 4.51953 3.1914-1.01953 0.23047-6.55469-6.15625-4.51953z" fill="#ae0000"/><path d="m35.3242 71.0508 3.20312 1.32812 2.35938-7.43359-3.20312-1.33203z" fill="#de0000"/><path d="m50.3398 40.5-6.63672 3.89453-0.226563 6.55859 3.20313 1.32812 6.63281-3.89844 0.230469-6.55469z" fill="#f30000"/><path d="m97.2188 43.0117-0.230469 6.55469 4.10938 1.14062 0.23047-6.55469z" fill="#b80000"/><path d="m45.5273 106.234 5.80859-8.86329-3.45703-2.86719-5.80859 8.86328z" fill="#b50000"/><path d="m124.562 79.1445-7.96875-4.14062-3.19141 1.01562-8.74218 9.47656-2.36328 7.4375-0.23829 4.20703 1.58594 6.17578 7.96875 4.14062 3.19141-1.01562 8.74609-9.47657 2.35938-7.4375 0.23828-4.20703z" fill="#870000"/><path d="m43.4766 50.9531-3.69922 1.33984-2.77734 3.50391-0.800781 4.32422 1.48438 3.49219 3.20312 1.33203 3.69922-1.34375 2.77734-3.50391 0.800781-4.32422-1.48437-3.49219z" fill="#e00"/><path d="m43.5625 77.1328-5.03516-4.75391-3.20312-1.32812-5.32812 0.449219-5.8125 8.86328-0.238282 4.20703 4.55469 13.168 5.03516 4.75 3.20312 1.32813 5.33203-0.44922 5.80859-8.86328 0.238282-4.20703z" fill="#c20000"/><path d="m92.1367 101.469-4.25781 1.45703 1.58594 6.17969 4.25781-1.46094z" fill="#900"/><path d="m53.3125 48.3828-6.63281 3.89844 1.48437 3.49219 6.63672-3.89453z" fill="#fd0000"/><path d="m102.059 97.1406-7.14453 0.824219-2.77734 3.50391 1.58594 6.17578 7.14062-0.82422 2.78125-3.5039z" fill="#940000"/><path d="m97.2188 43.0117-3.46094-2.86328-7.14453 0.824218-0.226562 6.55469 3.45703 2.86719 7.14453-0.828125z" fill="#c20000"/><path d="m104.66 85.4961 8.74218-9.47656-2.39062-3.30469-8.74609 9.47656z" fill="#a10000"/><path d="m89.4648 109.105-1.58594-6.17969-4.10938-1.14062-6.63672 3.89843 1.58594 6.17579 4.10938 1.14062z" fill="#9c0000"/><path d="m102.297 92.9336-7.14063 0.824218-0.242188 4.20703 7.14453-0.824219z" fill="#9c0000"/><path d="m43.5625 77.1328 4.55469 13.1641 3.69922-1.34375-4.55469-13.1641z" fill="#cf0000"/><path d="m47.2617 75.7891 2.35938-7.4375-5.03516-4.75-3.69922 1.34375-2.35938 7.43359 5.03516 4.75391z" fill="#e10000"/><path d="m48.1172 90.2969-0.238282 4.20703 3.45703 2.86719 3.69922-1.34375 0.238282-4.20703-3.45703-2.86719z" fill="#c20000"/><path d="m52.3984 64.8516-5.03516-4.75391-2.77734 3.50391 5.03516 4.75z" fill="#eb0000"/><path d="m81.375 98.4805-6.63281 3.89844 2.39062 3.30468 6.63672-3.89843z" fill="#a80000"/><path d="m72.9102 120.723 5.80859-8.86328-1.58594-6.17579-2.39062-3.30468-6.15625-4.51954-13.5508-1.83203-3.69922 1.34375-5.80859 8.86329 1.58594 6.17578 2.39062 3.30468 6.15625 4.51954 13.5508 1.83203z" fill="#a60000"/><path d="m92.7617 90.4531 2.39453 3.30469 7.14063-0.824218 2.36328-7.4375-2.39453-3.30469-7.14454 0.824219z" fill="#a60000"/><path d="m59.8359 56.6289-5.03516-4.75-6.63672 3.89453-0.800781 4.32422 5.03516 4.75391 6.63672-3.89844z" fill="#f30000"/><path d="m55.0352 96.0273 13.5508 1.83203 0.238281-4.20703-13.5508-1.83203z" fill="#bd0000"/><path d="m81.6133 94.2734-0.238281 4.20703 2.39453 3.30469 4.10938 1.14062 4.25781-1.45703 2.77734-3.50391 0.242188-4.20703-2.39453-3.30469-4.10938-1.14062-4.25781 1.46094z" fill="#a80000"/><path d="m92.7617 90.4531 2.35938-7.4375-4.10938-1.14062-2.35938 7.4375z" fill="#b00000"/><path d="m59.8359 56.6289 13.5508 1.83203 4.25781-1.45703 8.74219-9.47656 0.226562-6.55469-1.48438-3.49219-5.03516-4.75391-13.5508-1.83203-4.25781 1.46094-8.74219 9.47266-0.230469 6.55469 1.48828 3.49609z" fill="#e10000"/><path d="m77.6445 57.0039 3.45703 2.86328 8.74219-9.47266-3.45703-2.86719z" fill="#cf0000"/><path d="m81.375 98.4805 0.238281-4.20703-6.15234-4.51953-6.63672 3.89844-0.238281 4.20703 6.15625 4.51954z" fill="#b30000"/><path d="m59.8359 56.6289-0.800782 4.32422 13.5508 1.83203 0.800781-4.32422z" fill="#e30000"/><path d="m84.3945 90.7734-6.15625-4.51953-2.77734 3.5 6.15234 4.51953z" fill="#b80000"/><path d="m107.254 55.2266-6.15625-4.51953-4.10938-1.14062-7.14453 0.828125-8.74219 9.47266-0.800781 4.32422 4.55469 13.1641 6.15625 4.51953 4.10938 1.14062 7.14454-0.824219 8.74609-9.47656 0.80078-4.32422z" fill="#b80000"/><path d="m72.5859 62.7852 3.45703 2.86719 4.25781-1.46094 0.800781-4.32422-3.45703-2.86328-4.25781 1.45703z" fill="#d40000"/><path d="m91.0117 81.875-6.15625-4.51953-4.25781 1.46094-2.35938 7.4375 6.15625 4.51953 4.25781-1.46094z" fill="#b80000"/><path d="m76.043 65.6523 4.55469 13.1641 4.25781-1.46094-4.55469-13.1641z" fill="#ca0000"/><path d="m47.2617 75.7891 4.55469 13.1641 3.45703 2.86719 13.5508 1.83203 6.63672-3.89844 2.77734-3.5 2.35938-7.4375-4.55469-13.1641-3.45703-2.86719-13.5508-1.83203-6.63672 3.89844-2.77734 3.5z" fill="#d40000"/></g></svg>
